<?xml version="1.0" encoding="UTF-8"?>
<svg id="Layer_1" xmlns="http://www.w3.org/2000/svg" version="1.1" viewBox="0 0 648.89 104">
  <!-- Generator: Adobe Illustrator 29.0.1, SVG Export Plug-In . SVG Version: 2.1.0 Build 192)  -->
  <defs>
    <style>
      .st0 {
        fill: #fff;
      }
    </style>
  </defs>
  <path class="st0" d="M15.2,55v30h-1.2V15h15.8c7.63,0,13.49,1.65,17.58,4.95,4.08,3.3,6.12,8.32,6.12,15.05,0,2.9-.58,5.58-1.73,8.02-1.15,2.45-2.77,4.56-4.88,6.33-2.1,1.77-4.6,3.15-7.5,4.15-2.9,1-6.1,1.5-9.6,1.5h-14.6ZM15.2,54h14.6c3.43,0,6.53-.49,9.3-1.48,2.77-.98,5.12-2.33,7.07-4.05,1.95-1.72,3.46-3.73,4.53-6.02,1.07-2.3,1.6-4.78,1.6-7.45,0-6.23-1.88-10.96-5.62-14.17s-9.38-4.83-16.88-4.83h-14.6v38Z"/>
  <path class="st0" d="M82.8,35.2c2.57,0,4.97.46,7.2,1.38,2.23.92,4.17,2.27,5.82,4.07,1.65,1.8,2.94,4.01,3.88,6.62.93,2.62,1.4,5.62,1.4,9.02,0,.17-.06.29-.18.38-.12.08-.26.12-.42.12h-37.8c-.07.47-.1.92-.1,1.35v1.35c0,4.07.48,7.66,1.45,10.77.97,3.12,2.34,5.73,4.12,7.85,1.78,2.12,3.93,3.72,6.45,4.82,2.52,1.1,5.31,1.65,8.38,1.65,2.77,0,5.14-.3,7.12-.9,1.98-.6,3.63-1.27,4.95-2,1.32-.73,2.32-1.4,3-2,.68-.6,1.12-.9,1.33-.9.13,0,.27.07.4.2l.2.2c-.57.7-1.41,1.43-2.52,2.18-1.12.75-2.43,1.44-3.95,2.07-1.52.63-3.17,1.15-4.98,1.55-1.8.4-3.65.6-5.55.6-3.37,0-6.38-.59-9.05-1.78-2.67-1.18-4.92-2.89-6.77-5.12-1.85-2.23-3.27-4.97-4.27-8.2-1-3.23-1.5-6.9-1.5-11,0-3.6.48-6.89,1.45-9.88.97-2.98,2.37-5.54,4.2-7.67,1.83-2.13,4.08-3.79,6.73-4.98,2.65-1.18,5.66-1.77,9.02-1.77ZM82.8,36.2c-2.93,0-5.57.47-7.92,1.42s-4.38,2.28-6.08,4c-1.7,1.72-3.06,3.79-4.07,6.23-1.02,2.43-1.68,5.12-1.98,8.05h37.25c0-3.17-.43-5.98-1.3-8.42-.87-2.45-2.07-4.51-3.62-6.18-1.55-1.67-3.38-2.93-5.47-3.8-2.1-.87-4.37-1.3-6.8-1.3Z"/>
  <path class="st0" d="M115.2,85v-49h.3c.47,0,.7.27.7.8l.15,9.45c1.13-1.67,2.41-3.18,3.83-4.55,1.42-1.37,2.94-2.53,4.57-3.5s3.35-1.71,5.15-2.23c1.8-.52,3.67-.77,5.6-.77,5.43,0,9.49,1.62,12.18,4.85,2.68,3.23,4.02,7.75,4.02,13.55v31.4h-1.2v-31.4c0-2.73-.3-5.18-.9-7.33-.6-2.15-1.53-3.98-2.78-5.48s-2.82-2.64-4.7-3.42c-1.88-.78-4.09-1.17-6.62-1.17-3.83,0-7.37,1.02-10.6,3.07-3.23,2.05-6.07,4.88-8.5,8.48v37.25h-1.2Z"/>
  <path class="st0" d="M185.6,35.2c2.57,0,4.97.46,7.2,1.38,2.23.92,4.18,2.27,5.83,4.07,1.65,1.8,2.94,4.01,3.88,6.62.93,2.62,1.4,5.62,1.4,9.02,0,.17-.06.29-.17.38-.12.08-.26.12-.43.12h-37.8c-.07.47-.1.92-.1,1.35v1.35c0,4.07.48,7.66,1.45,10.77.97,3.12,2.34,5.73,4.12,7.85,1.78,2.12,3.93,3.72,6.45,4.82s5.31,1.65,8.38,1.65c2.77,0,5.14-.3,7.12-.9s3.63-1.27,4.95-2c1.32-.73,2.32-1.4,3-2,.68-.6,1.12-.9,1.33-.9.13,0,.27.07.4.2l.2.2c-.57.7-1.41,1.43-2.52,2.18-1.12.75-2.43,1.44-3.95,2.07-1.52.63-3.17,1.15-4.97,1.55-1.8.4-3.65.6-5.55.6-3.37,0-6.38-.59-9.05-1.78-2.67-1.18-4.92-2.89-6.77-5.12-1.85-2.23-3.28-4.97-4.28-8.2-1-3.23-1.5-6.9-1.5-11,0-3.6.48-6.89,1.45-9.88.97-2.98,2.37-5.54,4.2-7.67,1.83-2.13,4.07-3.79,6.72-4.98,2.65-1.18,5.66-1.77,9.03-1.77ZM185.6,36.2c-2.93,0-5.58.47-7.93,1.42-2.35.95-4.38,2.28-6.07,4-1.7,1.72-3.06,3.79-4.08,6.23-1.02,2.43-1.67,5.12-1.98,8.05h37.25c0-3.17-.43-5.98-1.3-8.42-.87-2.45-2.08-4.51-3.62-6.18-1.55-1.67-3.38-2.93-5.47-3.8-2.1-.87-4.37-1.3-6.8-1.3Z"/>
  <path class="st0" d="M220.9,13v72h-1.2V13h1.2Z"/>
  <path class="st0" d="M257.8,35.2c3.43,0,6.48.61,9.15,1.82,2.67,1.22,4.91,2.93,6.73,5.12,1.82,2.2,3.19,4.86,4.12,7.98.93,3.12,1.4,6.57,1.4,10.38s-.47,7.24-1.4,10.32c-.93,3.08-2.31,5.72-4.12,7.93-1.82,2.2-4.06,3.89-6.73,5.07-2.67,1.18-5.72,1.78-9.15,1.78s-6.53-.59-9.18-1.78c-2.65-1.18-4.88-2.88-6.7-5.07-1.82-2.2-3.19-4.84-4.12-7.93-.93-3.08-1.4-6.53-1.4-10.32s.47-7.26,1.4-10.38c.93-3.12,2.31-5.77,4.12-7.98,1.82-2.2,4.05-3.91,6.7-5.12,2.65-1.22,5.71-1.82,9.18-1.82ZM257.8,84.6c3.33,0,6.27-.58,8.8-1.75,2.53-1.17,4.64-2.8,6.33-4.9,1.68-2.1,2.95-4.63,3.8-7.6.85-2.97,1.27-6.25,1.27-9.85s-.42-6.89-1.27-9.88c-.85-2.98-2.12-5.54-3.8-7.67-1.68-2.13-3.79-3.79-6.33-4.98-2.53-1.18-5.47-1.77-8.8-1.77s-6.31.59-8.83,1.77c-2.52,1.18-4.62,2.84-6.3,4.98-1.68,2.13-2.95,4.69-3.8,7.67-.85,2.98-1.27,6.27-1.27,9.88s.42,6.88,1.27,9.85c.85,2.97,2.12,5.5,3.8,7.6,1.68,2.1,3.78,3.73,6.3,4.9,2.52,1.17,5.46,1.75,8.83,1.75Z"/>
  <path class="st0" d="M293,103V36h.3c.47,0,.7.27.7.8l.15,9.3c2.2-3.37,4.86-6.02,7.97-7.98,3.12-1.95,6.54-2.92,10.28-2.92,6.33,0,11.18,2.04,14.55,6.12,3.37,4.08,5.05,10.38,5.05,18.87,0,3.57-.46,6.89-1.38,9.97-.92,3.08-2.27,5.77-4.08,8.05-1.8,2.28-4.04,4.08-6.72,5.4-2.68,1.32-5.79,1.97-9.33,1.97-7.2,0-12.63-2.92-16.3-8.75v26.15h-1.2ZM312.4,36.2c-3.63,0-7.01,1.02-10.12,3.05-3.12,2.03-5.81,4.85-8.08,8.45v27.55c2.13,3.43,4.52,5.85,7.15,7.25,2.63,1.4,5.68,2.1,9.15,2.1s6.42-.62,8.95-1.88,4.64-2.97,6.33-5.18c1.68-2.2,2.94-4.78,3.77-7.75.83-2.97,1.25-6.17,1.25-9.6,0-8.13-1.56-14.17-4.67-18.1-3.12-3.93-7.69-5.9-13.72-5.9Z"/>
  <path class="st0" d="M362.7,35.2c2.57,0,4.97.46,7.2,1.38,2.23.92,4.18,2.27,5.83,4.07,1.65,1.8,2.94,4.01,3.88,6.62.93,2.62,1.4,5.62,1.4,9.02,0,.17-.06.29-.17.38-.12.08-.26.12-.43.12h-37.8c-.07.47-.1.92-.1,1.35v1.35c0,4.07.48,7.66,1.45,10.77.97,3.12,2.34,5.73,4.12,7.85,1.78,2.12,3.93,3.72,6.45,4.82s5.31,1.65,8.38,1.65c2.77,0,5.14-.3,7.12-.9s3.63-1.27,4.95-2c1.32-.73,2.32-1.4,3-2,.68-.6,1.12-.9,1.33-.9.13,0,.27.07.4.2l.2.2c-.57.7-1.41,1.43-2.52,2.18-1.12.75-2.43,1.44-3.95,2.07-1.52.63-3.17,1.15-4.97,1.55-1.8.4-3.65.6-5.55.6-3.37,0-6.38-.59-9.05-1.78-2.67-1.18-4.92-2.89-6.77-5.12-1.85-2.23-3.28-4.97-4.28-8.2-1-3.23-1.5-6.9-1.5-11,0-3.6.48-6.89,1.45-9.88.97-2.98,2.37-5.54,4.2-7.67,1.83-2.13,4.07-3.79,6.72-4.98,2.65-1.18,5.66-1.77,9.03-1.77ZM362.7,36.2c-2.93,0-5.58.47-7.93,1.42-2.35.95-4.38,2.28-6.07,4-1.7,1.72-3.06,3.79-4.08,6.23-1.02,2.43-1.67,5.12-1.98,8.05h37.25c0-3.17-.43-5.98-1.3-8.42-.87-2.45-2.08-4.51-3.62-6.18-1.55-1.67-3.38-2.93-5.47-3.8-2.1-.87-4.37-1.3-6.8-1.3Z"/>
  <path class="st0" d="M469.2,85h-1.2v-35h-49.2v35h-1.2V15h1.2v33.9h49.2V15h1.2v70Z"/>
  <path class="st0" d="M516,40.3c-.13.2-.3.3-.5.3-.27,0-.66-.23-1.17-.68-.52-.45-1.27-.95-2.25-1.5-.98-.55-2.22-1.06-3.72-1.52-1.5-.47-3.35-.7-5.55-.7-2.07,0-3.96.32-5.67.95-1.72.63-3.19,1.48-4.42,2.52-1.23,1.05-2.19,2.26-2.88,3.62-.68,1.37-1.03,2.8-1.03,4.3,0,1.77.42,3.24,1.25,4.42.83,1.18,1.93,2.18,3.28,3,1.35.82,2.89,1.51,4.62,2.08,1.73.57,3.5,1.12,5.3,1.67s3.57,1.13,5.3,1.75c1.73.62,3.28,1.39,4.62,2.33,1.35.93,2.44,2.07,3.28,3.42.83,1.35,1.25,3.02,1.25,5.02s-.36,3.88-1.08,5.65c-.72,1.77-1.76,3.3-3.12,4.6-1.37,1.3-3.04,2.33-5.02,3.1-1.98.77-4.24,1.15-6.78,1.15-1.77,0-3.34-.14-4.72-.42-1.38-.28-2.67-.68-3.85-1.18-1.18-.5-2.28-1.12-3.3-1.85-1.02-.73-2.03-1.55-3.03-2.45l.3-.3c.1-.1.18-.18.25-.22.07-.05.18-.08.35-.08.27,0,.7.28,1.3.85.6.57,1.44,1.2,2.53,1.9,1.08.7,2.45,1.33,4.1,1.9,1.65.57,3.67.85,6.08.85s4.53-.35,6.38-1.05c1.85-.7,3.41-1.66,4.67-2.88s2.23-2.63,2.88-4.25c.65-1.62.98-3.36.98-5.23s-.42-3.48-1.25-4.73c-.83-1.25-1.93-2.31-3.28-3.17s-2.89-1.59-4.62-2.18c-1.73-.58-3.5-1.14-5.3-1.67-1.8-.53-3.57-1.1-5.3-1.7-1.73-.6-3.28-1.34-4.62-2.22-1.35-.88-2.44-1.97-3.28-3.27-.83-1.3-1.25-2.92-1.25-4.85,0-1.63.37-3.19,1.1-4.68.73-1.48,1.77-2.8,3.1-3.95,1.33-1.15,2.92-2.07,4.77-2.75,1.85-.68,3.89-1.02,6.12-1.02,2.77,0,5.2.38,7.3,1.12,2.1.75,4.13,1.97,6.1,3.67l-.2.3Z"/>
  <path class="st0" d="M537.8,17.8c0,.7-.29,1.33-.88,1.88-.58.55-1.23.83-1.93.83-.77,0-1.42-.27-1.97-.83-.55-.55-.83-1.17-.83-1.88,0-.77.28-1.42.83-1.97.55-.55,1.21-.83,1.97-.83.7,0,1.34.27,1.93.83.58.55.88,1.21.88,1.97ZM535.6,36v49h-1.2v-49h1.2Z"/>
  <path class="st0" d="M572.49,35.2c2.57,0,4.97.46,7.2,1.38,2.23.92,4.18,2.27,5.83,4.07,1.65,1.8,2.94,4.01,3.88,6.62.93,2.62,1.4,5.62,1.4,9.02,0,.17-.06.29-.17.38-.12.08-.26.12-.43.12h-37.8c-.07.47-.1.92-.1,1.35v1.35c0,4.07.48,7.66,1.45,10.77.97,3.12,2.34,5.73,4.12,7.85,1.78,2.12,3.93,3.72,6.45,4.82s5.31,1.65,8.38,1.65c2.77,0,5.14-.3,7.12-.9s3.63-1.27,4.95-2c1.32-.73,2.32-1.4,3-2,.68-.6,1.12-.9,1.33-.9.13,0,.27.07.4.2l.2.2c-.57.7-1.41,1.43-2.52,2.18-1.12.75-2.43,1.44-3.95,2.07-1.52.63-3.17,1.15-4.97,1.55-1.8.4-3.65.6-5.55.6-3.37,0-6.38-.59-9.05-1.78-2.67-1.18-4.92-2.89-6.77-5.12-1.85-2.23-3.28-4.97-4.28-8.2-1-3.23-1.5-6.9-1.5-11,0-3.6.48-6.89,1.45-9.88.97-2.98,2.37-5.54,4.2-7.67,1.83-2.13,4.07-3.79,6.72-4.98,2.65-1.18,5.66-1.77,9.03-1.77ZM572.49,36.2c-2.93,0-5.58.47-7.93,1.42-2.35.95-4.38,2.28-6.07,4-1.7,1.72-3.06,3.79-4.08,6.23-1.02,2.43-1.67,5.12-1.98,8.05h37.25c0-3.17-.43-5.98-1.3-8.42-.87-2.45-2.08-4.51-3.62-6.18-1.55-1.67-3.38-2.93-5.47-3.8-2.1-.87-4.37-1.3-6.8-1.3Z"/>
  <path class="st0" d="M604.89,85V13h1.2v33.2c1.13-1.67,2.41-3.18,3.83-4.53,1.42-1.35,2.94-2.51,4.58-3.47,1.63-.97,3.35-1.71,5.15-2.23,1.8-.52,3.65-.77,5.55-.77,5.43,0,9.49,1.62,12.18,4.85,2.68,3.23,4.02,7.75,4.02,13.55v31.4h-1.2v-31.4c0-2.73-.3-5.18-.9-7.33-.6-2.15-1.53-3.98-2.78-5.48s-2.82-2.64-4.7-3.42c-1.88-.78-4.09-1.17-6.62-1.17-3.83,0-7.37,1.02-10.6,3.07-3.23,2.05-6.07,4.88-8.5,8.48v37.25h-1.2Z"/>
</svg>